<svg width="24" height="24" viewBox="0 0 24 24" fill="none" xmlns="http://www.w3.org/2000/svg">
<g id="pin_drop_24px">
<g id="&#226;&#134;&#179; Light Color">
<path id="Mask" opacity="0.5" fill-rule="evenodd" clip-rule="evenodd" d="M8 8C8 5.79 9.79 4 12 4C14.21 4 16 5.79 16 8C16 10.13 13.92 13.47 12 15.91C10.08 13.47 8 10.13 8 8ZM10 8C10 9.1 10.9 10 12 10C13.11 10 14 9.1 14 8C14 6.9 13.1 6 12 6C10.9 6 10 6.9 10 8Z" fill="#1E3E0A"/>
</g>
<g id="&#226;&#134;&#179; Dark Color">
<path id="Mask_2" d="M5 20H19V22H5V20Z" fill="#1E3E0A"/>
</g>
<g id="&#226;&#134;&#179; Dark Color_2">
<path id="Mask_3" fill-rule="evenodd" clip-rule="evenodd" d="M6 8C6 4.69 8.69 2 12 2C15.31 2 18 4.69 18 8C18 12.5 12 19 12 19C12 19 6 12.5 6 8ZM8 8C8 10.13 10.08 13.47 12 15.91C13.92 13.46 16 10.13 16 8C16 5.79 14.21 4 12 4C9.79 4 8 5.79 8 8Z" fill="#1E3E0A"/>
</g>
<g id="&#226;&#134;&#179; Dark Color_3">
<path id="Mask_4" d="M12 6C10.9 6 10 6.9 10 8C10 9.1 10.9 10 12 10C13.11 10 14 9.1 14 8C14 6.9 13.1 6 12 6Z" fill="#1E3E0A"/>
</g>
</g>
</svg>

