<svg width="24" height="24" viewBox="0 0 24 24" fill="none" xmlns="http://www.w3.org/2000/svg">
<g id="confirmation_number_24px">
<g id="&#226;&#134;&#179; Light Color">
<path id="Mask" opacity="0.5" fill-rule="evenodd" clip-rule="evenodd" d="M6 12C6 10.52 5.2 9.23 4.01 8.54L4 6H20V8.54C18.81 9.23 18 10.53 18 12C18 13.47 18.81 14.77 20 15.46V18H4V15.46C5.19 14.77 6 13.48 6 12ZM13 7H11V9H13V7ZM11 11H13V13H11V11ZM13 15H11V17H13V15Z" fill="#1E3E0A"/>
</g>
<g id="&#226;&#134;&#179; Dark Color">
<path id="Mask_2" fill-rule="evenodd" clip-rule="evenodd" d="M22 6V10C20.9 10 20 10.9 20 12C20 13.1 20.9 14 22 14V18C22 19.1 21.1 20 20 20H4C2.9 20 2 19.1 2 18V14C3.11 14 4 13.1 4 12C4 10.9 3.11 10 2.01 10V6C2.01 4.89 2.9 4 4 4H20C21.1 4 22 4.89 22 6ZM18 12C18 10.53 18.81 9.23 20 8.54V6H4L4.01 8.54C5.2 9.23 6 10.52 6 12C6 13.47 5.19 14.77 4 15.46V18H20V15.46C18.81 14.77 18 13.47 18 12Z" fill="#1E3E0A"/>
</g>
<g id="&#226;&#134;&#179; Dark Color_2">
<path id="Mask_3" d="M11 15H13V17H11V15Z" fill="#1E3E0A"/>
</g>
<g id="&#226;&#134;&#179; Dark Color_3">
<path id="Mask_4" d="M11 11H13V13H11V11Z" fill="#1E3E0A"/>
</g>
<g id="&#226;&#134;&#179; Dark Color_4">
<path id="Mask_5" d="M11 7H13V9H11V7Z" fill="#1E3E0A"/>
</g>
</g>
</svg>

